<svg xmlns="http://www.w3.org/2000/svg" viewBox="0 0 256 256">
  <rect width="256" height="256" rx="40" fill="#0f0f0f"/>
  <g transform="translate(66, 97)">
    <rect x="0" y="0" width="124" height="62" rx="8" fill="#F5C518"/>
    <g transform="translate(8, 7)">
      <polygon points="7.5,41.4 17.1,41.4 17.1,6.5 7.5,6.5" fill="#000"/>
      <path d="M37.8,6.5l-2.2,16.3L34.3,14c-0.4-2.8-0.8-5.3-1.1-7.4H21v34.8h8.2l0-23l3.5,23h5.8l3.3-23.5l0,23.5H50V6.5H37.8z" fill="#000"/>
      <path d="M53.9,41.4V6.5H69c3.4,0,6.2,2.7,6.2,6.1v22.5c0,3.4-2.8,6.1-6.2,6.1H53.9z M65.2,12.8c-0.4-0.2-1.1-0.3-2.2-0.3v22.8c1.4,0,2.3-0.3,2.6-0.8c0.3-0.5,0.5-1.9,0.5-4.3V16.8c0-1.6-0.1-2.6-0.2-3C65.8,13.3,65.6,13,65.2,12.8z" fill="#000"/>
      <path d="M93.4,15.3H94c3.5,0,6.3,2.7,6.3,6.1v14c0,3.4-2.8,6.1-6.3,6.1h-0.6c-2.1,0-4-1-5.1-2.6l-0.6,2.1H79V6.5h9.3v11.2C89.5,16.2,91.3,15.3,93.4,15.3z M91.4,32.2V24c0-1.4-0.1-2.3-0.3-2.7s-0.9-0.7-1.4-0.7s-1.3,0.2-1.5,0.6V24v8.5v2.7c0.2,0.4,0.9,0.6,1.5,0.6c0.5,0,1.3-0.2,1.4-0.6C91.4,34.8,91.4,33.8,91.4,32.2z" fill="#000"/>
    </g>
  </g>
</svg>
